<svg width="287" height="41" viewBox="0 0 287 41" fill="none" xmlns="http://www.w3.org/2000/svg">
<path d="M0.331552 2.87283C9.04155 16.0328 22.2516 24.6628 37.0816 29.5728C52.4716 34.6728 68.7715 35.9828 84.8415 37.1928C106.082 38.7828 127.372 39.7828 148.662 40.1628C169.952 40.5428 191.422 40.3328 212.782 39.5028C234.142 38.6728 255.342 37.2528 276.552 35.2228C279.182 34.9728 281.812 34.7128 284.442 34.4428C285.492 34.3328 286.402 33.6228 286.402 32.4828C286.402 31.5028 285.502 30.4128 284.442 30.5228C263.412 32.6828 242.312 34.2528 221.192 35.2328C200.072 36.2128 179.112 36.5828 158.072 36.3728C137.032 36.1628 115.982 35.3628 94.9715 33.9828C78.3016 32.8828 61.3316 32.0128 45.0816 27.8228C30.6016 24.0928 16.8216 17.3328 7.18155 5.61283C5.94155 4.10283 4.80155 2.52283 3.72155 0.892832C2.33155 -1.19717 -1.06845 0.762831 0.331552 2.87283Z" fill="white"/>
</svg>
