<svg width="272" height="41" viewBox="0 0 272 41" fill="none" xmlns="http://www.w3.org/2000/svg">
<path d="M267.67 0.887245C259.2 13.6972 246.05 21.8172 231.59 26.3272C216.22 31.1172 200.05 32.2872 184.09 33.4472C163.09 34.9772 142.05 35.9172 121.01 36.2672C99.97 36.6172 78.91 36.3772 57.88 35.5572C36.85 34.7372 15.82 33.3072 -5.15 31.3072C-7.78 31.0572 -10.41 30.7972 -13.04 30.5272C-14.09 30.4172 -15 31.5072 -15 32.4872C-15 33.6372 -14.1 34.3372 -13.04 34.4472C8.16 36.6172 29.42 38.1972 50.7 39.1772C71.98 40.1572 93.44 40.5272 114.81 40.2872C136.11 40.0472 157.4 39.2072 178.65 37.7572C195.45 36.6172 212.57 35.6472 228.9 31.1972C243.65 27.1772 257.75 19.9072 267.45 7.81725C268.73 6.22725 269.93 4.57725 271.06 2.87725C272.46 0.767246 269.06 -1.20275 267.68 0.897245L267.67 0.887245Z" fill="white"/>
</svg>
