<svg width="245" height="49" viewBox="0 0 245 49" fill="none" xmlns="http://www.w3.org/2000/svg">
<g clip-path="url(#clip0_110_54)">
<path d="M241.704 0.892035C233.419 14.812 219.964 23.0701 206.289 28.2858C190.7 34.2221 174.25 36.9214 158.03 39.5407C141.81 42.16 124.238 44.3103 107.227 44.8822C91.7385 45.3969 76.24 44.5963 60.8517 42.5718C43.5099 40.2842 26.3384 36.5326 9.28704 32.2662C6.91268 31.6714 4.53832 31.0652 2.16395 30.4476C-0.0100381 29.8871 -0.94175 33.7074 1.24226 34.2679C19.0349 38.8773 36.9378 42.995 55.0311 45.7172C70.6998 48.062 86.4788 49.2286 102.278 48.9656C119.269 48.6911 136.22 46.861 153.051 44.2875C169.822 41.7254 186.843 39.1175 203.103 33.5816C217.329 28.7319 231.655 21.1829 241.363 7.93779C242.545 6.32504 243.658 4.63223 244.699 2.89367C245.962 0.777656 242.956 -1.21254 241.704 0.892035Z" fill="white"/>
</g>
<defs>
<clipPath id="clip0_110_54">
<rect width="245" height="49" fill="white"/>
</clipPath>
</defs>
</svg>
