<svg width="1031" height="529" viewBox="0 0 1031 529" fill="none" xmlns="http://www.w3.org/2000/svg">
<path d="M515.44 131.626C217.03 -21.2836 0 40.3764 0 40.3764V439.906C305.81 439.906 490.78 528.686 490.78 528.686H535.17C747.27 430.036 1030.88 479.366 1030.88 479.366V32.9764C648.61 -18.8136 515.44 131.626 515.44 131.626Z" fill="#00BB3F"/>
<path d="M1003.76 31.2564L998.83 432.506C673.29 383.356 500.65 504.026 500.65 504.026V127.216C793.9 0.836372 1003.76 31.2564 1003.76 31.2564Z" fill="#DCDCD9"/>
<path d="M959.37 3.38642V405.386C660.96 353.596 498.18 501.566 498.18 501.566V104.496C767 -28.6736 959.37 3.38642 959.37 3.38642Z" fill="#FFFFED"/>
</svg>
