<svg width="287" height="41" viewBox="0 0 287 41" fill="none" xmlns="http://www.w3.org/2000/svg">
<path d="M0.329995 2.8699C9.04 16.0299 22.25 24.6599 37.08 29.5699C52.47 34.6699 68.77 35.9799 84.84 37.1899C106.08 38.7799 127.37 39.7799 148.66 40.1599C169.95 40.5399 191.42 40.3299 212.78 39.4999C234.14 38.6699 255.34 37.2499 276.55 35.2199C279.18 34.9699 281.81 34.7099 284.44 34.4399C285.49 34.3299 286.4 33.6199 286.4 32.4799C286.4 31.4999 285.5 30.4099 284.44 30.5199C263.41 32.6799 242.31 34.2499 221.19 35.2299C200.07 36.2099 179.11 36.5799 158.07 36.3699C137.03 36.1599 115.98 35.3599 94.97 33.9799C78.3 32.8799 61.33 32.0099 45.08 27.8199C30.6 24.0899 16.82 17.3299 7.18 5.6099C5.93999 4.0999 4.8 2.5199 3.72 0.889902C2.33 -1.2001 -1.07 0.759902 0.329995 2.8699Z" fill="white"/>
</svg>
